/vscmnt/brussel_pixiu_data/_data_brussel/112/vsc11236/PredSimResults/SUBJ06opt3D/weighted-trackIG/worker_05.mot
version=1
nRows=7
nColumns=50
inDegrees=yes
endheader
                time	         pelvis_tilt	         pelvis_list	     pelvis_rotation	           pelvis_tx	           pelvis_ty	           pelvis_tz	       hip_flexion_r	     hip_adduction_r	      hip_rotation_r	        knee_angle_r	       ankle_angle_r	         mtp_angle_r	       hip_flexion_l	     hip_adduction_l	      hip_rotation_l	        knee_angle_l	       ankle_angle_l	         mtp_angle_l	    lumbar_extension	      lumbar_bending	     lumbar_rotation	 ercspn_r/activation	 intobl_r/activation	 extobl_r/activation	    abd_r/activation	    add_r/activation	hamstrings_r/activation	bifemsh_r/activation	glut_max_r/activation	iliopsoas_r/activation	rect_fem_r/activation	  vasti_r/activation	gastroc_r/activation	 soleus_r/activation	tib_ant_r/activation	 ercspn_l/activation	 intobl_l/activation	 extobl_l/activation	    abd_l/activation	    add_l/activation	hamstrings_l/activation	bifemsh_l/activation	glut_max_l/activation	iliopsoas_l/activation	rect_fem_l/activation	  vasti_l/activation	gastroc_l/activation	 soleus_l/activation	tib_ant_l/activation	
          1.29672636	         -5.56718379	         -0.96094190	          3.35918465	          1.28375910	          0.93509128	         -0.01221698	         30.57841466	         -0.66935448	         -4.79351929	         -7.26993827	         -0.16740106	          0.21616070	         -8.32976300	         -0.39546374	         -6.06993485	        -10.95258646	         10.53679503	         30.20838753	         -4.98953542	         -0.54273651	         -7.76970395	          0.19059836	          0.16667186	          0.00999999	          0.00999999	          0.26109468	          0.05659771	          0.07075671	          0.01521518	          0.13304180	          0.01767591	          0.00999999	          0.00999999	          0.00999999	          0.48866314	          0.11230469	          0.00999999	          0.00999999	          0.12177568	          0.00999999	          0.00999999	          0.28712420	          0.01324692	          0.59577301	          0.01273394	          0.00999999	          0.24788439	          0.41294457	          0.02634359	
          1.30969363	         -5.70016047	         -0.86865666	          3.32324890	          1.29939816	          0.93311677	         -0.01095280	         30.83458867	         -0.48598259	         -4.61638424	         -8.94599375	         -0.43205695	          0.21950365	         -8.72207621	         -0.45295979	         -6.56126556	        -11.75059366	          9.87692829	         31.96869219	         -4.63698525	         -0.21627751	         -8.32255851	          0.18414084	          0.13705203	          0.00999999	          0.00999999	          0.41334230	          0.06541355	          0.05818230	          0.04298440	          0.10939849	          0.01453466	          0.00999999	          0.00999999	          0.01798581	          0.48138448	          0.14214359	          0.00999999	          0.00999999	          0.10013450	          0.00999999	          0.00999999	          0.27417185	          0.01089277	          0.62011764	          0.01216120	          0.00999999	          0.23585326	          0.39785355	          0.02166198	
          1.32266089	         -5.80831297	         -0.82576317	          3.27629275	          1.31556775	          0.93136042	         -0.00967162	         30.91155002	         -0.33543772	         -4.26154231	        -10.66137450	         -0.64279101	          0.19600136	         -9.01753193	         -0.59016283	         -7.03390238	        -12.81469383	          9.08830051	         33.80899887	         -4.24788408	          0.18223635	         -8.83186576	          0.15268277	          0.11269604	          0.00999999	          0.00999999	          0.33988582	          0.07453934	          0.04784252	          0.03534549	          0.08995691	          0.01195166	          0.02871802	          0.01216120	          0.01478949	          0.51849169	          0.13538977	          0.00999999	          0.00999999	          0.08233926	          0.00999999	          0.00999999	          0.25908444	          0.00999999	          0.60396181	          0.00999999	          0.00999999	          0.20478687	          0.37799146	          0.01781235	
          1.33562815	         -5.89429145	         -0.82659009	          3.21126193	          1.33209336	          0.92989702	         -0.00827782	         30.79722441	         -0.16628978	         -4.01618914	        -12.07789391	         -1.02808978	          0.18622590	         -9.14820767	         -0.81345347	         -7.49873315	        -14.23677301	          8.13843064	         35.74048699	         -3.84480237	          0.63055806	         -9.28851279	          0.13617384	          0.09266844	          0.00999999	          0.00999999	          0.27948354	          0.07840061	          0.03934026	          0.04708387	          0.07397035	          0.00999999	          0.07111955	          0.00999999	          0.01216120	          0.56618720	          0.13820853	          0.00999999	          0.00999999	          0.06770646	          0.00999999	          0.01063951	          0.22785088	          0.00999999	          0.55262816	          0.00999999	          0.00999999	          0.16839349	          0.35163145	          0.01464686	
          1.34859542	         -5.95945331	         -0.86784373	          3.12619317	          1.34878808	          0.92881672	         -0.00675758	         30.53218741	          0.02448697	         -3.96843007	        -13.25684603	         -1.44672230	          0.15756010	         -9.06727751	         -1.12596544	         -7.97116514	        -16.06432878	          6.97243568	         37.76346306	         -3.45108081	          1.11984697	         -9.68693580	          0.13024527	          0.07620001	          0.00999999	          0.04786387	          0.24416982	          0.08051809	          0.03234897	          0.05945098	          0.06082483	          0.00999999	          0.13559545	          0.00999999	          0.00999999	          0.61509291	          0.16316139	          0.00999999	          0.00999999	          0.05567411	          0.00999999	          0.01487880	          0.20036498	          0.00999999	          0.47345184	          0.00999999	          0.00999999	          0.13846771	          0.32324462	          0.01204391	
          1.36156268	         -6.00538108	         -0.94716537	          3.02231934	          1.36546444	          0.92828049	         -0.00512876	         30.14624205	          0.23611387	         -4.07302769	        -14.30924617	         -1.50781750	          0.12507662	         -8.73980575	         -1.53040315	         -8.45842237	        -18.31172105	          5.50168510	         39.85162857	         -3.08436274	          1.64468747	        -10.02436522	          0.13229703	          0.06265824	          0.00999999	          0.10793043	          0.21151390	          0.08014639	          0.02660012	          0.06855162	          0.05001544	          0.00999999	          0.19112136	          0.00999999	          0.00999999	          0.61039753	          0.19524576	          0.00999999	          0.00999999	          0.04578008	          0.00999999	          0.04028932	          0.17599411	          0.00999999	          0.38931308	          0.00999999	          0.00999999	          0.11386013	          0.26579971	          0.00999999	
          1.37452994	         -6.03485441	         -1.05651811	          2.90569731	          1.38191808	          0.92846609	         -0.00341504	         29.65673334	          0.47944366	         -4.21515917	        -15.27973607	         -0.99028350	          0.17503299	         -8.13439352	         -2.02411929	         -8.95593659	        -20.98247679	          3.67272940	         41.85335318	         -2.75992480	          2.19247250	        -10.30357092	          0.12509052	          0.05152303	          0.00999999	          0.15985260	          0.18478043	          0.07538672	          0.02187292	          0.07182550	          0.04112702	          0.00999999	          0.25657370	          0.00999999	          0.00999999	          0.53332141	          0.23084687	          0.00999999	          0.00999999	          0.03764434	          0.06816322	          0.10923203	          0.15307825	          0.00999999	          0.32012692	          0.00999999	          0.00999999	          0.09362566	          0.21856353	          0.00999999	
